<svg height="512" viewBox="0 0 34 60" width="512" xmlns="http://www.w3.org/2000/svg"><g id="Page-1" fill="none" fill-rule="evenodd"><g id="021---Hang-Man" fill-rule="nonzero"><g id="Icons" transform="translate(1)"><path id="Shape" d="m31 26c0 4.12 0 7.76-3.61 9.92-.831972.484784-1.7225301.8611708-2.65 1.12-2.8547727.7234549-5.7962569 1.046547-8.74.96-2.9437431.086547-5.8852273-.2365451-8.74-.96-.92746985-.2588292-1.81802803-.635216-2.65-1.12-3.61-2.16-3.61-5.8-3.61-9.92 0-5.54 4.69-10.2 11.06-11.58 1.2948722-.2783958 2.6155387-.4191775 3.94-.42.7050599-.0007583 1.4095723.0393087 2.11.12 7.28.82 12.89 5.82 12.89 11.88z" fill="#ffe0b2"/><path id="Shape" d="m18.11 14.12c-.7004277-.0806913-1.4049401-.1207583-2.11-.12-.475 0-.937.041-1.4.076.17.015.342.024.511.044 7.279.82 12.889 5.82 12.889 11.88 0 4.12 0 7.76-3.61 9.92-.831972.484784-1.7225301.8611708-2.65 1.12-2.3638025.6185959-4.7966023.9344567-7.24.94.484.012.981.02 1.5.02 2.9437431.086547 5.8852273-.2365451 8.74-.96.9274699-.2588292 1.818028-.635216 2.65-1.12 3.61-2.16 3.61-5.8 3.61-9.92 0-6.06-5.61-11.06-12.89-11.88z" fill="#dfc49c"/><circle id="Oval" cx="9.5" cy="30.5" fill="#3f51b5" r="2.5"/><circle id="Oval" cx="22.5" cy="30.5" fill="#3f51b5" r="2.5"/><path id="Shape" d="m18.89 4.79-4 2c-.9819366.45103043-2.1445717.0405467-2.6256531-.92702163-.4810815-.96756833-.1066276-2.14230302.8456531-2.65297837l4-2c.6426595-.34463615 1.4219591-.31216969 2.0337255.08472719.6117665.39689689.9590206 1.09530691.9062235 1.82262923-.0527971.72732231-.4972759 1.3682596-1.159949 1.67264358z" fill="#a0522d"/><path id="Shape" d="m18.89 9.26-4 2c-.6426595.3446362-1.4219591.3121697-2.0337255-.0847272-.6117665-.3968969-.9590206-1.0953069-.9062235-1.82262922.0527971-.72732231.4972759-1.3682596 1.159949-1.67264358l4-2c.6426595-.34463615 1.4219591-.31216969 2.0337255.08472719.6117665.39689689.9590206 1.09530691.9062235 1.82262923-.0527971.72732231-.4972759 1.3682596-1.159949 1.67264358z" fill="#825a2c"/><path id="Shape" d="m18.89 13.73-.78.39c-.7004277-.0806913-1.4049401-.1207583-2.11-.12-1.3244613.0008225-2.6451278.1416042-3.94.42-.222993-.9063225.2135375-1.8459024 1.05-2.26l4-2c.6398509-.33571623 1.4112177-.29920866 2.0165017.0954378.605284.3946465.9498613 1.085737.9007916 1.8066439s-.4841153 1.3589311-1.1372933 1.6679183z" fill="#a0522d"/><path id="Shape" d="m25.96 43.56c.0359419.60096-.0631493 1.2023411-.29 1.76-.0990637.2730648-.2335459.5319432-.4.77-.2226982.3310035-.4999703.621801-.82.86-1.8355191 1.2120116-3.971528 1.8905493-6.17 1.96-.7.06-1.45.09-2.28.09s-1.58-.03-2.28-.09c-2.198472-.0694507-4.33448094-.7479884-6.17-1.96-.32002971-.238199-.59730176-.5289965-.82-.86-.16645405-.2380568-.30093635-.4969352-.4-.77-.22685066-.5576589-.32594187-1.15904-.29-1.76.08677448-2.2211721.49778668-4.4177291 1.22-6.52 2.8547727.7234549 5.7962569 1.046547 8.74.96 2.9437431.086547 5.8852273-.2365451 8.74-.96.7222133 2.1022709 1.1332255 4.2988279 1.22 6.52z" fill="#e91e63"/><path id="Shape" d="m24.74 37.04c-.9232923.2630914-1.8639469.4609129-2.815.592.6015701 1.9225231.9495118 3.9153715 1.035 5.928.0359419.60096-.0631493 1.2023411-.29 1.76-.0990637.2730648-.2335459.5319432-.4.77-.2226982.3310035-.4999703.621801-.82.86-1.8355191 1.2120116-3.971528 1.8905493-6.17 1.96-.25.021-.516.034-.78.048.475.025.967.042 1.5.042.83 0 1.58-.03 2.28-.09 2.198472-.0694507 4.3344809-.7479884 6.17-1.96.3200297-.238199.5973018-.5289965.82-.86.1664541-.2380568.3009363-.4969352.4-.77.2268507-.5576589.3259419-1.15904.29-1.76-.0867745-2.2211721-.4977867-4.4177291-1.22-6.52z" fill="#ad1457"/><path id="Shape" d="m6.04 43.56c-.03594187.60096.06314934 1.2023411.29 1.76-2.98 1.8-4.51.99-5.31-.25-.81524715-1.3746185-.84564952-3.0771512-.08-4.48.8614794-1.8098123 2.11515116-3.405084 3.67-4.67.83197197.484784 1.72253015.8611708 2.65 1.12-.72221332 2.1022709-1.13322552 4.2988279-1.22 6.52z" fill="#9d27b0"/><path id="Shape" d="m30.98 45.07c-.8 1.24-2.33 2.05-5.31.25.2268507-.5576589.3259419-1.15904.29-1.76-.0867745-2.2211721-.4977867-4.4177291-1.22-6.52.9274699-.2588292 1.818028-.635216 2.65-1.12 1.5548488 1.264916 2.8085206 2.8601877 3.67 4.67.7656495 1.4028488.7352472 3.1053815-.08 4.48z" fill="#9d27b0"/><path id="Shape" d="m31.06 40.59c-.8614794-1.8098123-2.1151512-3.405084-3.67-4.67-.6291028.3701268-1.2950245.673763-1.987.906 1.0853676 1.1010722 1.9829313 2.3725927 2.657 3.764.7656495 1.4028488.7352472 3.1053815-.08 4.48-.2364203.3802645-.5569879.7011742-.937.938 2.095.823 3.271.095 3.937-.938.8152472-1.3746185.8456495-3.0771512.08-4.48z" fill="#6a1b9a"/><path id="Shape" d="m13.72 48.91c-.11 4.21-.86 6.76-1.61 8.26-.5293631 1.1074347-1.6426146 1.817278-2.87 1.83-.09677438.0016633-.19357007-.0016745-.29-.01-1.58846129-.2061559-2.80137668-1.5201475-2.88-3.12-.13579453-3.2742944.08551093-6.5536388.66-9.78.22269824.3310035.49997029.621801.82.86 1.83551906 1.2120116 3.971528 1.8905493 6.17 1.96z" fill="#3f51b5"/><path id="Shape" d="m25.93 55.87c-.0786233 1.5998525-1.2915387 2.9138441-2.88 3.12-.0964299.0083255-.1932256.0116633-.29.01-1.2273854-.012722-2.3406369-.7225653-2.87-1.83-.75-1.5-1.5-4.05-1.61-8.26 2.198472-.0694507 4.3344809-.7479884 6.17-1.96.3200297-.238199.5973018-.5289965.82-.86.5744891 3.2263612.7957945 6.5057056.66 9.78z" fill="#3f51b5"/><path id="Shape" d="m25.27 46.09c-.2226982.3310035-.4999703.621801-.82.86-.5854686.4240497-1.2243112.7690248-1.9 1.026.3870128 2.6123308.5143009 5.2565743.38 7.894-.0731908 1.1334397-.7046311 2.1564853-1.685 2.73.4625502.2605336.9841258.3982433 1.515.4.0967744.0016633.1935701-.0016745.29-.01 1.5884613-.2061559 2.8013767-1.5201475 2.88-3.12.1357945-3.2742944-.0855109-6.5536388-.66-9.78z" fill="#283593"/></g><g id="Layer_2" fill="#000"><path id="Shape" d="m7 33c0 .5522847.44771525 1 1 1h5c.5522847 0 1-.4477153 1-1-.0041043-.330103-.1739664-.6360051-.452-.814.2922406-.5141516.4478564-1.0946124.452-1.686 0-1.9329966-1.5670034-3.5-3.5-3.5-1.93299662 0-3.5 1.5670034-3.5 3.5.00414355.5913876.15975939 1.1718484.452 1.686-.2780336.1779949-.44789569.483897-.452.814zm3.5-4c.8284271 0 1.5.6715729 1.5 1.5s-.6715729 1.5-1.5 1.5c-.82842712 0-1.5-.6715729-1.5-1.5s.67157288-1.5 1.5-1.5z"/><path id="Shape" d="m20 33c0 .5522847.4477153 1 1 1h5c.5522847 0 1-.4477153 1-1-.0041043-.330103-.1739664-.6360051-.452-.814.2922406-.5141516.4478564-1.0946124.452-1.686 0-1.9329966-1.5670034-3.5-3.5-3.5s-3.5 1.5670034-3.5 3.5c.0041436.5913876.1597594 1.1718484.452 1.686-.2780336.1779949-.4478957.483897-.452.814zm3.5-4c.8284271 0 1.5.6715729 1.5 1.5s-.6715729 1.5-1.5 1.5-1.5-.6715729-1.5-1.5.6715729-1.5 1.5-1.5z"/><path id="Shape" d="m29.983 36.007c3.011-2.469 3.017-6.176 3.017-10.007 0-5.891-4.851-10.871-11.475-12.462.7993103-1.2350911.5705989-2.8697172-.537-3.838.6425151-.56592108 1.0106721-1.38079188 1.0106721-2.237s-.368157-1.67107892-1.0106721-2.237c1.1133294-1.00026046 1.3169944-2.66899872.4769201-3.90766681-.8400742-1.2386681-2.4657894-1.66670657-3.8069201-1.00233319l-4 2c-.8926813.44351695-1.5059826 1.30233853-1.6357898 2.29063876-.1298071.98830023.2409165 1.97636747.9887898 2.63536124-.6437505.56541207-1.012783 1.38070039-1.012783 2.2375 0 .8567996.3690325 1.6720879 1.012783 2.2375-.5633414.4978588-.9200536 1.1884537-1 1.936-6.381 1.707-11.011 6.592-11.011 12.347 0 3.831.006 7.538 3.017 10.007-1.2182058 1.2000157-2.2232297 2.5986627-2.972 4.136-.93158977 1.7170943-.88017508 3.7999608.135 5.469.65217168 1.0935767 1.83272553 1.7621517 3.106 1.759.80358669-.0260498 1.59338908-.2159291 2.321-.558-.49594585 3.0180565-.67425291 6.0797764-.532 9.135.12145856 2.0812061 1.71126594 3.7791036 3.78 4.037.12896932.0119763.258491.0169836.388.015 1.6072852-.0086687 3.0686711-.9338766 3.764-2.383 1.0610209-2.4117856 1.6288293-5.011464 1.67-7.646.422.018.859.029 1.323.029s.9-.011 1.328-.029c.0415545 2.6337347.6100633 5.2324864 1.672 7.643.6943154 1.4499683 2.1553963 2.3763938 3.763 2.386.131172.0018611.2623515-.0031458.393-.015 2.0664104-.2597282 3.6533425-1.9568289 3.774-4.036.1426613-3.0548937-.0356484-6.1163249-.532-9.134.7262579.3406142 1.5142634.5297899 2.316.556 1.2732745.0031517 2.4538283-.6654233 3.106-1.759 1.014954-1.6679315 1.0667496-3.7496573.136-5.466-.7483267-1.5387473-1.7537584-2.9385059-2.973-4.139zm-13.641-28.324 2.215-1.107c.2354614-.11927244.5090242-.13873541.759-.054.384366.12736716.6539866.47395446.6828982.87784026s-.1885931.78534324-.5508982.96615974l-4 2c-.4946724.2374178-1.0884952.0396243-1.342-.447-.1187373-.23722727-.138347-.5119133-.0545133-.76360203.0838338-.25168874.2642402-.45975241.5015133-.57839797l1.783-.892zm-1.789-3.578 4-2c.1387506-.06944149.291843-.10540281.447-.105.1073623.00024685.2140111.01745916.316.051.384366.12736716.6539866.47395446.6828982.87784026s-.1885931.78534324-.5508982.96615974l-1.782.891h-.006l-2.216 1.114c-.4941683.23531071-1.0859381.03731753-1.339-.448-.1202529-.23785574-.1405786-.51387497-.0564646-.76678.0841139-.25290503.265707-.46176791.5044646-.58022zm0 8.95 4.007-2c.2307891-.1188804.4998288-.139437.746-.057.3864817.1241893.6587661.4707101.6880167.8755996.0292506.4048894-.1903988.7869492-.5550167.9654004l-.533.267c-.627-.061-1.262-.1-1.91-.1-.8799644.0044494-1.7586262.068261-2.63.191.057616-.054971.1217624-.102661.191-.142zm-11.553 12.945c0-6.065 6.28-11 14-11s14 4.935 14 11c0 6.624 0 11-14 11s-14-4.376-14-11zm-.14 18.528c-.62688841-1.078044-.63601996-2.407446-.024-3.494.71596041-1.4806077 1.71080016-2.809211 2.93-3.913.40794191.2032499.82692917.3835312 1.255.54-.56100399 1.9030543-.88972534 3.8669881-.979 5.849-.02312323.4427959.01048276.886731.1 1.321-2.325 1.169-3.011.116-3.282-.303zm9.356 12.2c-.3602533.766459-1.1261801 1.2602548-1.973 1.272-.066 0-.127 0-.187 0-1.10439026-.1616092-1.93829955-1.0849109-1.987-2.2-.12841056-2.5748141-.00213062-5.1560163.377-7.706 1.6012543.9393942 3.3867354 1.5213641 5.234 1.706-.0183373 2.3835116-.516224 4.7389507-1.464 6.926zm2.592-8.812c-2.0122664-.0560152-3.9700802-.6660587-5.658-1.763-.23461073-.1764507-.43750348-.391517-.6-.636l-.007-.012c-.12041766-.1764399-.21755376-.3676871-.289-.569-.16906356-.4198667-.24184832-.872294-.213-1.324.08181367-1.8243907.38400849-3.6321873.9-5.384 2.6479124.5650602 5.3519685.8240912 8.059.772 2.7081094.0516643 5.4131862-.2080392 8.062-.774.5160776 1.7517929.8182742 3.5596.9 5.384.0282812.4655097-.0500404.9313348-.229 1.362-.0726253.1998627-.1714908.3891868-.294.563-.159259.2362898-.3573954.4438935-.586.614-1.6875334 1.0980259-3.6454714 1.7088001-5.658 1.765-1.4600704.1150518-2.9269296.1150518-4.387 0zm11.128 7.878c-.0469339 1.1133016-.877776 2.0364595-1.98 2.2-.0442067.0041258-.0886083.0057951-.133.005-.8647759-.0090359-1.6513889-.5024076-2.036-1.277-.9460949-2.1861034-1.4432687-4.5400275-1.462-6.922 1.8477884-.1873789 3.6330587-.7728029 5.233-1.716.3798699 2.5505821.5064865 5.1324881.378 7.708zm5.2-11.264c-.271.419-.957 1.47-3.285.3.0892267-.4339718.1228303-.877539.1-1.32-.0892747-1.9820119-.417996-3.9459457-.979-5.849.4280708-.1564688.8470581-.3367501 1.255-.54 1.2200052 1.1046948 2.2155165 2.4343068 2.932 3.916.6124176 1.0848993.6051902 2.4128311-.019 3.491z"/><path id="Shape" d="m18 43h-2c-.5522847 0-1 .4477153-1 1s.4477153 1 1 1h2c.5522847 0 1-.4477153 1-1s-.4477153-1-1-1z"/></g></g></g></svg>